<?xml version="1.0" encoding="iso-8859-1"?>
<!-- Generator: Adobe Illustrator 16.0.0, SVG Export Plug-In . SVG Version: 6.00 Build 0)  -->
<!DOCTYPE svg PUBLIC "-//W3C//DTD SVG 1.1//EN" "http://www.w3.org/Graphics/SVG/1.1/DTD/svg11.dtd">
<svg xmlns="http://www.w3.org/2000/svg" xmlns:xlink="http://www.w3.org/1999/xlink" version="1.1" id="Capa_1" x="0px" y="0px" width="512px" height="512px" viewBox="0 0 448.564 448.564" style="enable-background:new 0 0 448.564 448.564;" xml:space="preserve">
<g>
	<g>
		<path d="M83.458,127.442l112.005,274.47c4.844,11.882,18.471,17.61,30.351,12.761l133.49-54.481    c11.877-4.85,17.601-18.469,12.74-30.352L260.04,55.377c-4.844-11.89-18.474-17.618-30.351-12.758L96.209,97.098    C84.319,101.948,78.614,115.559,83.458,127.442z M233.122,51.048c7.236-2.947,15.539,0.536,18.488,7.765l112.006,274.47    c2.96,7.236-0.523,15.533-7.76,18.479l-133.484,54.481c-7.236,2.955-15.523-0.533-18.486-7.77L91.877,123.997    c-2.945-7.229,0.523-15.523,7.759-18.469L233.122,51.048z" fill="#933EC5"/>
		<path d="M207.881,378.401l138.834-56.66c1.179-0.478,1.732-1.809,1.25-2.971l-98.33-240.955c-0.482-1.163-1.808-1.717-2.966-1.242    l-138.832,56.668c-1.178,0.472-1.731,1.8-1.249,2.96l98.333,240.95C205.401,378.325,206.721,378.883,207.881,378.401z     M249.269,88.96l90.638,222.116c1.65,4.037-0.29,8.652-4.327,10.303l-119.995,48.973c-4.037,1.65-8.65-0.295-10.3-4.332    l-90.637-222.115c-1.65-4.037,0.292-8.65,4.329-10.301l119.995-48.972C243.013,82.979,247.62,84.917,249.269,88.96z" fill="#933EC5"/>
		<path d="M160.174,96.908l23.684-9.679c1.17-0.479,1.732-1.808,1.25-2.96c-0.475-1.171-1.8-1.725-2.963-1.25l-23.699,9.679    c-1.153,0.472-1.714,1.8-1.249,2.96C157.67,96.822,158.999,97.382,160.174,96.908z" fill="#933EC5"/>
		<path d="M304.137,355.286c-2.041-4.986-7.744-7.389-12.73-5.357l-24.268,9.907c-4.981,2.041-7.394,7.744-5.357,12.72l0.604,1.453    c2.021,4.986,7.733,7.388,12.726,5.357l24.252-9.908c4.986-2.036,7.394-7.738,5.357-12.725L304.137,355.286z M297.653,365.249    l-24.273,9.907c-2.65,1.081-5.707-0.198-6.784-2.859l-0.599-1.457c-1.082-2.65,0.197-5.702,2.863-6.784l24.273-9.907    c2.65-1.081,5.713,0.198,6.784,2.854l0.584,1.452C301.583,361.11,300.319,364.157,297.653,365.249z" fill="#933EC5"/>
		<path d="M126.908,49.784c1.112-1.13,1.714-2.615,1.699-4.187c0-0.703-0.127-1.398-0.373-2.046    c-0.861-2.323-3.103-3.854-5.568-3.847C75.313,39.948,36.964,78.667,37.21,126.02c0.016,3.184,2.78,5.908,5.957,5.9    c1.572-0.015,3.057-0.632,4.179-1.762c1.115-1.123,1.714-2.615,1.714-4.194c-0.213-40.827,32.834-74.212,73.661-74.418    C124.316,51.546,125.793,50.921,126.908,49.784z" fill="#933EC5"/>
		<path d="M130.643,14.266c3.255-0.015,5.896-2.679,5.896-5.964c-0.018-0.696-0.143-1.384-0.389-2.039    c-0.861-2.308-3.098-3.856-5.586-3.839C58.216,2.78-0.354,61.958,0.001,134.337c0.016,3.199,2.788,5.893,5.972,5.886    c1.571-0.008,3.057-0.632,4.164-1.762c1.115-1.12,1.729-2.615,1.714-4.187C11.519,68.436,64.804,14.606,130.643,14.266z" fill="#933EC5"/>
		<path d="M359.909,397.757c-1.453,0.671-2.529,1.864-3.058,3.362c-0.518,1.503-0.432,3.098,0.229,4.52    c0.311,0.635,0.711,1.203,1.219,1.69c1.763,1.741,4.438,2.173,6.683,1.122c42.772-20.316,61.062-71.63,40.751-114.412    c-1.36-2.879-5.032-4.174-7.901-2.823c-1.422,0.686-2.498,1.874-3.041,3.372c-0.523,1.488-0.452,3.098,0.229,4.529    C412.542,336.004,396.79,380.244,359.909,397.757z" fill="#933EC5"/>
		<path d="M427.999,267.918c-1.422,0.681-2.493,1.874-3.021,3.372c-0.538,1.488-0.467,3.098,0.229,4.515    c28.219,59.479,2.804,130.829-56.659,159.067c-2.95,1.396-4.194,4.926-2.813,7.906c0.31,0.625,0.711,1.184,1.198,1.681    c1.777,1.722,4.459,2.174,6.703,1.107c65.363-31.006,93.287-109.445,62.256-174.845    C434.544,267.828,430.878,266.563,427.999,267.918z" fill="#933EC5"/>
	</g>
</g>
<g>
</g>
<g>
</g>
<g>
</g>
<g>
</g>
<g>
</g>
<g>
</g>
<g>
</g>
<g>
</g>
<g>
</g>
<g>
</g>
<g>
</g>
<g>
</g>
<g>
</g>
<g>
</g>
<g>
</g>
</svg>
